<?xml version="1.0" encoding="utf-8"?>
<svg xmlns="http://www.w3.org/2000/svg" viewBox="0 0 500 500">
  <path d="M -1.396 499.884 L 16.715 499.884 L 16.715 -0.597 L -1.396 -0.597 L -1.396 499.884 Z M 36.043 499.884 L 91.587 499.884 L 91.587 -0.597 L 36.043 -0.597 L 36.043 499.884 Z M 109.703 -0.597 L 109.703 499.866 L 165.248 499.866 L 165.248 -0.597 L 109.703 -0.597 Z" style="fill: rgb(153, 0, 0); stroke-width: 1;"/>
  <path d="M 445.525 499.92 L 463.642 499.92 L 463.642 -0.597 L 445.525 -0.597 L 445.525 499.92 Z M 482.964 -0.597 L 482.964 499.92 L 501.077 499.92 L 501.077 -0.597 L 482.964 -0.597 Z M 183.964 499.92 L 202.076 499.92 L 202.076 -0.597 L 183.964 -0.597 L 183.964 499.92 Z M 221.402 -0.597 L 221.402 499.901 L 239.519 499.901 L 239.519 -0.597 L 221.402 -0.597 Z" style="fill: rgb(51, 153, 102); stroke-width: 1;"/>
  <path d="M 258.228 499.92 L 313.779 499.92 L 313.779 -0.597 L 258.228 -0.597 L 258.228 499.92 Z M 331.889 499.92 L 351.208 499.92 L 351.208 -0.597 L 331.889 -0.597 L 331.889 499.92 Z M 369.325 -0.597 L 369.325 499.901 L 424.87 499.901 L 424.87 -0.597 L 369.325 -0.597 Z" style="fill: rgb(0, 102, 153); stroke-width: 1;"/>
</svg>